<svg width="63" height="49" viewBox="0 0 63 49" fill="none" xmlns="http://www.w3.org/2000/svg">
<path d="M5.90625 0.875C2.64551 0.875 0 3.52051 0 6.78125C0 8.63926 0.873633 10.3865 2.3625 11.5062L29.1375 31.5875C30.5402 32.6334 32.4598 32.6334 33.8625 31.5875L60.6375 11.5062C62.1264 10.3865 63 8.63926 63 6.78125C63 3.52051 60.3545 0.875 57.0938 0.875H5.90625ZM0 14.6562V40.25C0 44.5936 3.53145 48.125 7.875 48.125H55.125C59.4686 48.125 63 44.5936 63 40.25V14.6562L36.225 34.7375C33.4195 36.8416 29.5805 36.8416 26.775 34.7375L0 14.6562Z" fill="white"/>
</svg>
