<svg width="34" height="23" viewBox="0 0 34 23" fill="none" xmlns="http://www.w3.org/2000/svg">
<path fill-rule="evenodd" clip-rule="evenodd" d="M12.6571 9.57232L23.0507 9.57817C24.2017 15.9548 20.0421 22.3224 11.9666 22.3224C5.47713 22.3224 0.228516 17.3362 0.228516 11.1712C0.228516 5.0062 5.47713 0.0200195 11.9666 0.0200195C15.1359 0.0200195 17.7853 1.11917 19.8311 2.93528L16.6451 5.85047C15.7731 5.054 14.2472 4.13004 11.9666 4.13004C7.95887 4.13004 4.68896 7.28425 4.68896 11.1712C4.68896 15.0582 7.95887 18.2124 11.9666 18.2124C16.5203 18.2124 18.2761 15.1738 18.5967 13.508H12.6571V9.57232ZM30.6095 9.57232H33.3714V12.1961H30.6095V14.8199H27.8476V12.1961H25.0857V9.57232H27.8476V6.94851H30.6095V9.57232Z" fill="white" fill-opacity="0.5"/>
</svg>
