<svg width="47" height="45" viewBox="0 0 47 45" fill="none" xmlns="http://www.w3.org/2000/svg">
<path fill-rule="evenodd" clip-rule="evenodd" d="M19.6571 20.5723L30.0507 20.5782C31.2017 26.9548 27.0421 33.3224 18.9666 33.3224C12.4771 33.3224 7.22852 28.3362 7.22852 22.1712C7.22852 16.0062 12.4771 11.02 18.9666 11.02C22.1359 11.02 24.7853 12.1192 26.8311 13.9353L23.6451 16.8505C22.7731 16.054 21.2472 15.13 18.9666 15.13C14.9589 15.13 11.689 18.2842 11.689 22.1712C11.689 26.0582 14.9589 29.2124 18.9666 29.2124C23.5203 29.2124 25.2761 26.1738 25.5967 24.508H19.6571V20.5723ZM37.6095 20.5723H40.3714V23.1961H37.6095V25.8199H34.8476V23.1961H32.0857V20.5723H34.8476V17.9485H37.6095V20.5723Z" fill="white" fill-opacity="0.5"/>
</svg>
