<svg width="99" height="32" viewBox="0 0 99 32" fill="none" xmlns="http://www.w3.org/2000/svg">
<g filter="url(#filter0_d_1_6)">
<mask id="path-1-outside-1_1_6" maskUnits="userSpaceOnUse" x="3" y="-1" width="93" height="26" fill="black">
<rect fill="white" x="3" y="-1" width="93" height="26"/>
<path d="M4.176 23V0.407999H9.2V23H4.176ZM8.048 23V18.584H19.216V23H8.048ZM31.6475 23.384C29.9408 23.384 28.3622 23.0853 26.9115 22.488C25.4822 21.8907 24.2235 21.0587 23.1355 19.992C22.0475 18.9253 21.2048 17.688 20.6075 16.28C20.0102 14.8507 19.7115 13.3147 19.7115 11.672C19.7115 10.008 20.0102 8.472 20.6075 7.064C21.2048 5.656 22.0368 4.42933 23.1035 3.384C24.1702 2.31733 25.4182 1.496 26.8475 0.919998C28.2982 0.322665 29.8768 0.0239983 31.5835 0.0239983C33.2688 0.0239983 34.8262 0.322665 36.2555 0.919998C37.7062 1.496 38.9648 2.31733 40.0315 3.384C41.1195 4.42933 41.9622 5.66667 42.5595 7.096C43.1568 8.504 43.4555 10.04 43.4555 11.704C43.4555 13.3467 43.1568 14.8827 42.5595 16.312C41.9622 17.72 41.1302 18.9573 40.0635 20.024C38.9968 21.0693 37.7382 21.8907 36.2875 22.488C34.8582 23.0853 33.3115 23.384 31.6475 23.384ZM31.5835 18.808C32.9275 18.808 34.1008 18.5093 35.1035 17.912C36.1275 17.3147 36.9168 16.4827 37.4715 15.416C38.0262 14.328 38.3035 13.08 38.3035 11.672C38.3035 10.6053 38.1435 9.64533 37.8235 8.792C37.5035 7.91733 37.0448 7.17067 36.4475 6.552C35.8502 5.912 35.1355 5.432 34.3035 5.112C33.4928 4.77067 32.5862 4.6 31.5835 4.6C30.2395 4.6 29.0555 4.89867 28.0315 5.496C27.0288 6.072 26.2502 6.89333 25.6955 7.96C25.1408 9.00533 24.8635 10.2427 24.8635 11.672C24.8635 12.7387 25.0235 13.7093 25.3435 14.584C25.6635 15.4587 26.1115 16.216 26.6875 16.856C27.2848 17.4747 27.9995 17.9547 28.8315 18.296C29.6635 18.6373 30.5808 18.808 31.5835 18.808ZM57.6133 23.352C55.9706 23.352 54.4239 23.0533 52.9733 22.456C51.5439 21.8587 50.2959 21.0373 49.2293 19.992C48.1626 18.9253 47.3199 17.688 46.7013 16.28C46.1039 14.8507 45.8053 13.3147 45.8053 11.672C45.8053 10.0293 46.1146 8.504 46.7333 7.096C47.3519 5.688 48.2053 4.46133 49.2933 3.416C50.4026 2.34933 51.6933 1.528 53.1653 0.952C54.6373 0.354666 56.2159 0.0559998 57.9013 0.0559998C59.8426 0.0559998 61.6026 0.408 63.1813 1.112C64.7813 1.816 66.1039 2.78667 67.1493 4.024L63.7253 7.448C62.9999 6.50933 62.1466 5.80533 61.1653 5.336C60.1839 4.86667 59.0746 4.632 57.8373 4.632C56.5146 4.632 55.3306 4.93067 54.2853 5.528C53.2399 6.104 52.4186 6.92533 51.8213 7.992C51.2453 9.03733 50.9573 10.264 50.9573 11.672C50.9573 13.08 51.2453 14.3173 51.8213 15.384C52.3973 16.4507 53.1866 17.2827 54.1892 17.88C55.1919 18.4773 56.3439 18.776 57.6453 18.776C58.9679 18.776 60.0879 18.5307 61.0053 18.04C61.9439 17.528 62.6586 16.8027 63.1493 15.864C63.6613 14.904 63.9173 13.7413 63.9173 12.376L67.2453 14.616L57.1653 14.456V10.2H69.0373V10.936C69.0373 13.6453 68.5466 15.928 67.5653 17.784C66.6053 19.6187 65.2613 21.0053 63.5333 21.944C61.8266 22.8827 59.8533 23.352 57.6133 23.352ZM83.1788 23.384C81.4721 23.384 79.8934 23.0853 78.4427 22.488C77.0134 21.8907 75.7548 21.0587 74.6668 19.992C73.5788 18.9253 72.7361 17.688 72.1388 16.28C71.5414 14.8507 71.2428 13.3147 71.2428 11.672C71.2428 10.008 71.5414 8.472 72.1388 7.064C72.7361 5.656 73.5681 4.42933 74.6348 3.384C75.7014 2.31733 76.9494 1.496 78.3788 0.919998C79.8294 0.322665 81.4081 0.0239983 83.1148 0.0239983C84.8001 0.0239983 86.3574 0.322665 87.7868 0.919998C89.2374 1.496 90.4961 2.31733 91.5628 3.384C92.6508 4.42933 93.4934 5.66667 94.0908 7.096C94.6881 8.504 94.9868 10.04 94.9868 11.704C94.9868 13.3467 94.6881 14.8827 94.0908 16.312C93.4934 17.72 92.6614 18.9573 91.5948 20.024C90.5281 21.0693 89.2694 21.8907 87.8188 22.488C86.3894 23.0853 84.8428 23.384 83.1788 23.384ZM83.1148 18.808C84.4588 18.808 85.6321 18.5093 86.6348 17.912C87.6588 17.3147 88.4481 16.4827 89.0028 15.416C89.5574 14.328 89.8348 13.08 89.8348 11.672C89.8348 10.6053 89.6748 9.64533 89.3548 8.792C89.0348 7.91733 88.5761 7.17067 87.9788 6.552C87.3814 5.912 86.6668 5.432 85.8348 5.112C85.0241 4.77067 84.1174 4.6 83.1148 4.6C81.7708 4.6 80.5868 4.89867 79.5628 5.496C78.5601 6.072 77.7814 6.89333 77.2268 7.96C76.6721 9.00533 76.3948 10.2427 76.3948 11.672C76.3948 12.7387 76.5548 13.7093 76.8748 14.584C77.1948 15.4587 77.6428 16.216 78.2188 16.856C78.8161 17.4747 79.5308 17.9547 80.3628 18.296C81.1948 18.6373 82.1121 18.808 83.1148 18.808Z"/>
</mask>
<path d="M4.176 23V0.407999H9.2V23H4.176ZM8.048 23V18.584H19.216V23H8.048ZM31.6475 23.384C29.9408 23.384 28.3622 23.0853 26.9115 22.488C25.4822 21.8907 24.2235 21.0587 23.1355 19.992C22.0475 18.9253 21.2048 17.688 20.6075 16.28C20.0102 14.8507 19.7115 13.3147 19.7115 11.672C19.7115 10.008 20.0102 8.472 20.6075 7.064C21.2048 5.656 22.0368 4.42933 23.1035 3.384C24.1702 2.31733 25.4182 1.496 26.8475 0.919998C28.2982 0.322665 29.8768 0.0239983 31.5835 0.0239983C33.2688 0.0239983 34.8262 0.322665 36.2555 0.919998C37.7062 1.496 38.9648 2.31733 40.0315 3.384C41.1195 4.42933 41.9622 5.66667 42.5595 7.096C43.1568 8.504 43.4555 10.04 43.4555 11.704C43.4555 13.3467 43.1568 14.8827 42.5595 16.312C41.9622 17.72 41.1302 18.9573 40.0635 20.024C38.9968 21.0693 37.7382 21.8907 36.2875 22.488C34.8582 23.0853 33.3115 23.384 31.6475 23.384ZM31.5835 18.808C32.9275 18.808 34.1008 18.5093 35.1035 17.912C36.1275 17.3147 36.9168 16.4827 37.4715 15.416C38.0262 14.328 38.3035 13.08 38.3035 11.672C38.3035 10.6053 38.1435 9.64533 37.8235 8.792C37.5035 7.91733 37.0448 7.17067 36.4475 6.552C35.8502 5.912 35.1355 5.432 34.3035 5.112C33.4928 4.77067 32.5862 4.6 31.5835 4.6C30.2395 4.6 29.0555 4.89867 28.0315 5.496C27.0288 6.072 26.2502 6.89333 25.6955 7.96C25.1408 9.00533 24.8635 10.2427 24.8635 11.672C24.8635 12.7387 25.0235 13.7093 25.3435 14.584C25.6635 15.4587 26.1115 16.216 26.6875 16.856C27.2848 17.4747 27.9995 17.9547 28.8315 18.296C29.6635 18.6373 30.5808 18.808 31.5835 18.808ZM57.6133 23.352C55.9706 23.352 54.4239 23.0533 52.9733 22.456C51.5439 21.8587 50.2959 21.0373 49.2293 19.992C48.1626 18.9253 47.3199 17.688 46.7013 16.28C46.1039 14.8507 45.8053 13.3147 45.8053 11.672C45.8053 10.0293 46.1146 8.504 46.7333 7.096C47.3519 5.688 48.2053 4.46133 49.2933 3.416C50.4026 2.34933 51.6933 1.528 53.1653 0.952C54.6373 0.354666 56.2159 0.0559998 57.9013 0.0559998C59.8426 0.0559998 61.6026 0.408 63.1813 1.112C64.7813 1.816 66.1039 2.78667 67.1493 4.024L63.7253 7.448C62.9999 6.50933 62.1466 5.80533 61.1653 5.336C60.1839 4.86667 59.0746 4.632 57.8373 4.632C56.5146 4.632 55.3306 4.93067 54.2853 5.528C53.2399 6.104 52.4186 6.92533 51.8213 7.992C51.2453 9.03733 50.9573 10.264 50.9573 11.672C50.9573 13.08 51.2453 14.3173 51.8213 15.384C52.3973 16.4507 53.1866 17.2827 54.1892 17.88C55.1919 18.4773 56.3439 18.776 57.6453 18.776C58.9679 18.776 60.0879 18.5307 61.0053 18.04C61.9439 17.528 62.6586 16.8027 63.1493 15.864C63.6613 14.904 63.9173 13.7413 63.9173 12.376L67.2453 14.616L57.1653 14.456V10.2H69.0373V10.936C69.0373 13.6453 68.5466 15.928 67.5653 17.784C66.6053 19.6187 65.2613 21.0053 63.5333 21.944C61.8266 22.8827 59.8533 23.352 57.6133 23.352ZM83.1788 23.384C81.4721 23.384 79.8934 23.0853 78.4427 22.488C77.0134 21.8907 75.7548 21.0587 74.6668 19.992C73.5788 18.9253 72.7361 17.688 72.1388 16.28C71.5414 14.8507 71.2428 13.3147 71.2428 11.672C71.2428 10.008 71.5414 8.472 72.1388 7.064C72.7361 5.656 73.5681 4.42933 74.6348 3.384C75.7014 2.31733 76.9494 1.496 78.3788 0.919998C79.8294 0.322665 81.4081 0.0239983 83.1148 0.0239983C84.8001 0.0239983 86.3574 0.322665 87.7868 0.919998C89.2374 1.496 90.4961 2.31733 91.5628 3.384C92.6508 4.42933 93.4934 5.66667 94.0908 7.096C94.6881 8.504 94.9868 10.04 94.9868 11.704C94.9868 13.3467 94.6881 14.8827 94.0908 16.312C93.4934 17.72 92.6614 18.9573 91.5948 20.024C90.5281 21.0693 89.2694 21.8907 87.8188 22.488C86.3894 23.0853 84.8428 23.384 83.1788 23.384ZM83.1148 18.808C84.4588 18.808 85.6321 18.5093 86.6348 17.912C87.6588 17.3147 88.4481 16.4827 89.0028 15.416C89.5574 14.328 89.8348 13.08 89.8348 11.672C89.8348 10.6053 89.6748 9.64533 89.3548 8.792C89.0348 7.91733 88.5761 7.17067 87.9788 6.552C87.3814 5.912 86.6668 5.432 85.8348 5.112C85.0241 4.77067 84.1174 4.6 83.1148 4.6C81.7708 4.6 80.5868 4.89867 79.5628 5.496C78.5601 6.072 77.7814 6.89333 77.2268 7.96C76.6721 9.00533 76.3948 10.2427 76.3948 11.672C76.3948 12.7387 76.5548 13.7093 76.8748 14.584C77.1948 15.4587 77.6428 16.216 78.2188 16.856C78.8161 17.4747 79.5308 17.9547 80.3628 18.296C81.1948 18.6373 82.1121 18.808 83.1148 18.808Z" fill="white"/>
<path d="M4.176 23H3.176V24H4.176V23ZM4.176 0.407999V-0.592001H3.176V0.407999H4.176ZM9.2 0.407999H10.2V-0.592001H9.2V0.407999ZM9.2 23V24H10.2V23H9.2ZM8.048 23H7.048V24H8.048V23ZM8.048 18.584V17.584H7.048V18.584H8.048ZM19.216 18.584H20.216V17.584H19.216V18.584ZM19.216 23V24H20.216V23H19.216ZM5.176 23V0.407999H3.176V23H5.176ZM4.176 1.408H9.2V-0.592001H4.176V1.408ZM8.2 0.407999V23H10.2V0.407999H8.2ZM9.2 22H4.176V24H9.2V22ZM9.048 23V18.584H7.048V23H9.048ZM8.048 19.584H19.216V17.584H8.048V19.584ZM18.216 18.584V23H20.216V18.584H18.216ZM19.216 22H8.048V24H19.216V22ZM26.9115 22.488L26.5259 23.4107L26.5308 23.4127L26.9115 22.488ZM23.1355 19.992L23.8356 19.2779L23.1355 19.992ZM20.6075 16.28L19.6848 16.6656L19.6869 16.6705L20.6075 16.28ZM20.6075 7.064L19.6869 6.67345L20.6075 7.064ZM23.1035 3.384L23.8035 4.09825L23.8106 4.09111L23.1035 3.384ZM26.8475 0.919998L27.2213 1.84754L27.2283 1.84468L26.8475 0.919998ZM36.2555 0.919998L35.8699 1.84267L35.8782 1.84612L35.8865 1.84941L36.2555 0.919998ZM40.0315 3.384L39.3244 4.09111L39.3315 4.09818L39.3387 4.1051L40.0315 3.384ZM42.5595 7.096L41.6368 7.4816L41.6389 7.48655L42.5595 7.096ZM42.5595 16.312L43.4801 16.7026L43.4822 16.6976L42.5595 16.312ZM40.0635 20.024L40.7635 20.7382L40.7706 20.7311L40.0635 20.024ZM36.2875 22.488L35.9067 21.5633L35.9019 21.5653L36.2875 22.488ZM35.1035 17.912L34.5996 17.0482L34.5917 17.0529L35.1035 17.912ZM37.4715 15.416L38.3587 15.8774L38.3624 15.8702L37.4715 15.416ZM37.8235 8.792L36.8843 9.13559L36.8872 9.14312L37.8235 8.792ZM36.4475 6.552L35.7164 7.23432L35.7222 7.24051L35.7281 7.2466L36.4475 6.552ZM34.3035 5.112L33.9154 6.03364L33.9299 6.03972L33.9445 6.04535L34.3035 5.112ZM28.0315 5.496L28.5296 6.36312L28.5354 6.35978L28.0315 5.496ZM25.6955 7.96L26.5789 8.42873L26.5827 8.42135L25.6955 7.96ZM25.3435 14.584L24.4044 14.9276L25.3435 14.584ZM26.6875 16.856L25.9442 17.525L25.9559 17.538L25.9681 17.5506L26.6875 16.856ZM28.8315 18.296L28.4519 19.2212L28.8315 18.296ZM31.6475 22.384C30.0599 22.384 28.6119 22.1067 27.2922 21.5633L26.5308 23.4127C28.1124 24.064 29.8218 24.384 31.6475 24.384V22.384ZM27.2971 21.5653C25.9829 21.0161 24.8314 20.2542 23.8356 19.2779L22.4354 20.7061C23.6156 21.8631 24.9815 22.7652 26.5259 23.4107L27.2971 21.5653ZM23.8356 19.2779C22.842 18.3039 22.0742 17.1766 21.5281 15.8895L19.6869 16.6705C20.3355 18.1994 21.253 19.5468 22.4354 20.7061L23.8356 19.2779ZM21.5302 15.8944C20.9869 14.5945 20.7115 13.1904 20.7115 11.672H18.7115C18.7115 13.4389 19.0334 15.1068 19.6848 16.6656L21.5302 15.8944ZM20.7115 11.672C20.7115 10.1303 20.9876 8.72851 21.5281 7.45455L19.6869 6.67345C19.0327 8.21549 18.7115 9.88571 18.7115 11.672H20.7115ZM21.5281 7.45455C22.0752 6.16494 22.8332 5.04901 23.8034 4.09821L22.4036 2.66979C21.2404 3.80966 20.3345 5.14706 19.6869 6.67345L21.5281 7.45455ZM23.8106 4.09111C24.78 3.12167 25.914 2.37433 27.2213 1.84752L26.4737 -0.00752068C24.9223 0.617662 23.5603 1.51299 22.3964 2.67689L23.8106 4.09111ZM27.2283 1.84468C28.5479 1.30129 29.9959 1.024 31.5835 1.024V-0.976002C29.7578 -0.976002 28.0484 -0.655963 26.4668 -0.00467968L27.2283 1.84468ZM31.5835 1.024C33.1482 1.024 34.5731 1.30071 35.8699 1.84267L36.6411 -0.00267124C35.0792 -0.655385 33.3895 -0.976002 31.5835 -0.976002V1.024ZM35.8865 1.84941C37.215 2.37691 38.3575 3.12417 39.3244 4.09111L40.7386 2.67689C39.5722 1.5105 38.1974 0.615089 36.6245 -0.00941849L35.8865 1.84941ZM39.3387 4.1051C40.3252 5.05296 41.0909 6.17519 41.6368 7.48159L43.4822 6.71041C42.8335 5.15814 41.9138 3.80571 40.7243 2.66289L39.3387 4.1051ZM41.6389 7.48655C42.1794 8.76051 42.4555 10.1623 42.4555 11.704H44.4555C44.4555 9.91771 44.1343 8.24749 43.4801 6.70545L41.6389 7.48655ZM42.4555 11.704C42.4555 13.2224 42.1801 14.6265 41.6368 15.9264L43.4822 16.6976C44.1336 15.1388 44.4555 13.4709 44.4555 11.704H42.4555ZM41.6389 15.9214C41.091 17.2129 40.3309 18.3423 39.3564 19.3169L40.7706 20.7311C41.9294 19.5723 42.8333 18.2271 43.4801 16.7025L41.6389 15.9214ZM39.3636 19.3098C38.3934 20.2606 37.2446 21.0125 35.9067 21.5633L36.6683 23.4127C38.2318 22.7689 39.6003 21.8781 40.7634 20.7382L39.3636 19.3098ZM35.9019 21.5653C34.6036 22.1079 33.189 22.384 31.6475 22.384V24.384C33.434 24.384 35.1128 24.0627 36.6731 23.4107L35.9019 21.5653ZM31.5835 19.808C33.0799 19.808 34.4356 19.4739 35.6153 18.7711L34.5917 17.0529C33.766 17.5448 32.7751 17.808 31.5835 17.808V19.808ZM35.6074 18.7758C36.797 18.0818 37.7182 17.1092 38.3587 15.8774L36.5843 14.9546C36.1155 15.8562 35.458 16.5475 34.5996 17.0482L35.6074 18.7758ZM38.3624 15.8702C38.999 14.6214 39.3035 13.2137 39.3035 11.672H37.3035C37.3035 12.9463 37.0533 14.0346 36.5806 14.9618L38.3624 15.8702ZM39.3035 11.672C39.3035 10.5055 39.1284 9.42384 38.7598 8.44088L36.8872 9.14312C37.1586 9.86683 37.3035 10.7052 37.3035 11.672H39.3035ZM38.7626 8.44842C38.3987 7.45371 37.869 6.58457 37.1669 5.85741L35.7281 7.2466C36.2207 7.75677 36.6083 8.38096 36.8844 9.13558L38.7626 8.44842ZM37.1786 5.86968C36.4759 5.11682 35.6333 4.55203 34.6625 4.17865L33.9445 6.04535C34.6377 6.31197 35.2244 6.70718 35.7164 7.23432L37.1786 5.86968ZM34.6916 4.19036C33.742 3.79057 32.7009 3.6 31.5835 3.6V5.6C32.4714 5.6 33.2436 5.75076 33.9154 6.03364L34.6916 4.19036ZM31.5835 3.6C30.0866 3.6 28.7241 3.93425 27.5276 4.63222L28.5354 6.35978C29.3869 5.86308 30.3924 5.6 31.5835 5.6V3.6ZM27.5334 4.62889C26.3581 5.30406 25.4475 6.2694 24.8083 7.49865L26.5827 8.42135C27.0528 7.51726 27.6996 6.83993 28.5296 6.3631L27.5334 4.62889ZM24.8122 7.49128C24.1665 8.70807 23.8635 10.1129 23.8635 11.672H25.8635C25.8635 10.3724 26.1152 9.3026 26.5788 8.42871L24.8122 7.49128ZM23.8635 11.672C23.8635 12.8391 24.0387 13.9281 24.4044 14.9276L26.2826 14.2404C26.0083 13.4906 25.8635 12.6383 25.8635 11.672H23.8635ZM24.4044 14.9276C24.7647 15.9124 25.276 16.7825 25.9442 17.525L27.4308 16.187C26.947 15.6495 26.5623 15.005 26.2826 14.2404L24.4044 14.9276ZM25.9681 17.5506C26.6659 18.2733 27.4979 18.8298 28.4519 19.2212L29.2111 17.3708C28.5011 17.0796 27.9037 16.676 27.4069 16.1614L25.9681 17.5506ZM28.4519 19.2212C29.4175 19.6173 30.4656 19.808 31.5835 19.808V17.808C30.6961 17.808 29.9095 17.6574 29.2111 17.3708L28.4519 19.2212ZM52.9733 22.456L52.5877 23.3787L52.5925 23.3807L52.9733 22.456ZM49.2293 19.992L48.5221 20.6991L48.5293 20.7062L49.2293 19.992ZM46.7012 16.28L45.7786 16.6656L45.7821 16.674L45.7857 16.6823L46.7012 16.28ZM46.7332 7.096L47.6488 7.49827L46.7332 7.096ZM49.2933 3.416L49.9861 4.1371L49.9864 4.13683L49.2933 3.416ZM53.1653 0.952L53.5297 1.88332L53.5413 1.87861L53.1653 0.952ZM63.1813 1.112L62.774 2.02531L62.7785 2.02731L63.1813 1.112ZM67.1493 4.024L67.8564 4.7311L68.5065 4.08098L67.9131 3.37865L67.1493 4.024ZM63.7253 7.448L62.934 8.05945L63.6288 8.95865L64.4324 8.15511L63.7253 7.448ZM61.1653 5.336L61.5967 4.43386V4.43386L61.1653 5.336ZM54.2853 5.528L54.7679 6.40384L54.7747 6.40009L54.7814 6.39624L54.2853 5.528ZM51.8213 7.992L50.9487 7.50339L50.9454 7.5094L51.8213 7.992ZM51.8213 15.384L52.7012 14.9089L51.8213 15.384ZM54.1893 17.88L53.6774 18.7391L54.1893 17.88ZM61.0052 18.04L61.4769 18.9218L61.4841 18.9179L61.0052 18.04ZM63.1493 15.864L62.2669 15.3934L62.263 15.4007L63.1493 15.864ZM63.9173 12.376L64.4756 11.5464L62.9173 10.4975V12.376H63.9173ZM67.2453 14.616L67.2294 15.6159L70.6012 15.6694L67.8036 13.7864L67.2453 14.616ZM57.1653 14.456H56.1653V15.4403L57.1494 15.4559L57.1653 14.456ZM57.1653 10.2V9.2H56.1653V10.2H57.1653ZM69.0372 10.2H70.0372V9.2H69.0372V10.2ZM67.5652 17.784L66.6812 17.3166L66.6792 17.3204L67.5652 17.784ZM63.5332 21.944L63.0559 21.0653L63.0513 21.0678L63.5332 21.944ZM57.6133 22.352C56.0949 22.352 54.6782 22.0766 53.354 21.5313L52.5925 23.3807C54.1696 24.0301 55.8462 24.352 57.6133 24.352V22.352ZM53.3588 21.5333C52.0421 20.9831 50.9019 20.231 49.9292 19.2778L48.5293 20.7062C49.69 21.8436 51.0457 22.7343 52.5877 23.3787L53.3588 21.5333ZM49.9364 19.2849C48.9592 18.3078 48.1865 17.1743 47.6168 15.8777L45.7857 16.6823C46.4533 18.2017 47.366 19.5429 48.5221 20.6991L49.9364 19.2849ZM47.6239 15.8944C47.0807 14.5945 46.8052 13.1904 46.8052 11.672H44.8052C44.8052 13.4389 45.1272 15.1068 45.7786 16.6656L47.6239 15.8944ZM46.8052 11.672C46.8052 10.1583 47.0895 8.77099 47.6488 7.49827L45.8177 6.69373C45.1396 8.237 44.8052 9.90042 44.8052 11.672H46.8052ZM47.6488 7.49827C48.2158 6.20773 48.9943 5.08998 49.9861 4.1371L48.6004 2.69489C47.4162 3.83268 46.488 5.16827 45.8177 6.69373L47.6488 7.49827ZM49.9864 4.13683C50.9984 3.1637 52.1766 2.4127 53.5296 1.88324L52.8009 0.0207567C51.2099 0.643295 49.8068 1.53496 48.6001 2.69517L49.9864 4.13683ZM53.5413 1.87861C54.8867 1.33265 56.3369 1.056 57.9013 1.056V-0.944C56.095 -0.944 54.3878 -0.623317 52.7892 0.0253868L53.5413 1.87861ZM57.9013 1.056C59.7196 1.056 61.3384 1.38511 62.774 2.0253L63.5885 0.198698C61.8668 -0.569115 59.9656 -0.944 57.9013 -0.944V1.056ZM62.7785 2.02731C64.2504 2.67494 65.4459 3.55736 66.3854 4.66935L67.9131 3.37865C66.7619 2.01597 65.3121 0.957056 63.584 0.196685L62.7785 2.02731ZM66.4421 3.31689L63.0181 6.74089L64.4324 8.15511L67.8564 4.7311L66.4421 3.31689ZM64.5165 6.83655C63.7044 5.7856 62.7315 4.97659 61.5967 4.43386L60.7338 6.23813C61.5617 6.63407 62.2954 7.23306 62.934 8.05945L64.5165 6.83655ZM61.5967 4.43386C60.4633 3.89178 59.2033 3.632 57.8372 3.632V5.632C58.9458 5.632 59.9046 5.84155 60.7338 6.23813L61.5967 4.43386ZM57.8372 3.632C56.3582 3.632 55.0001 3.96774 53.7891 4.65976L54.7814 6.39624C55.661 5.89359 56.671 5.632 57.8372 5.632V3.632ZM53.8026 4.65216C52.5896 5.32058 51.635 6.27795 50.9487 7.5034L52.6938 8.4806C53.2022 7.57272 53.8902 6.88742 54.7679 6.40384L53.8026 4.65216ZM50.9454 7.5094C50.2745 8.72706 49.9572 10.1256 49.9572 11.672H51.9572C51.9572 10.4024 52.216 9.34761 52.6971 8.4746L50.9454 7.5094ZM49.9572 11.672C49.9572 13.219 50.2746 14.6245 50.9413 15.8591L52.7012 14.9089C52.2159 14.0101 51.9572 12.941 51.9572 11.672H49.9572ZM50.9413 15.8591C51.5997 17.0783 52.5135 18.0457 53.6774 18.7391L54.7011 17.0209C53.8597 16.5196 53.1948 15.8231 52.7012 14.9089L50.9413 15.8591ZM53.6774 18.7391C54.8522 19.439 56.185 19.776 57.6452 19.776V17.776C56.5028 17.776 55.5316 17.5157 54.7011 17.0209L53.6774 18.7391ZM57.6452 19.776C59.0889 19.776 60.3804 19.5083 61.4769 18.9218L60.5336 17.1582C59.7955 17.553 58.847 17.776 57.6452 17.776V19.776ZM61.4841 18.9179C62.5949 18.312 63.4521 17.4432 64.0355 16.3273L62.263 15.4007C61.865 16.1621 61.293 16.744 60.5264 17.1621L61.4841 18.9179ZM64.0316 16.3346C64.6381 15.1974 64.9173 13.8645 64.9173 12.376H62.9173C62.9173 13.6182 62.6844 14.6106 62.2669 15.3934L64.0316 16.3346ZM63.3589 13.2056L66.6869 15.4456L67.8036 13.7864L64.4756 11.5464L63.3589 13.2056ZM67.2611 13.6161L57.1811 13.4561L57.1494 15.4559L67.2294 15.6159L67.2611 13.6161ZM58.1653 14.456V10.2H56.1653V14.456H58.1653ZM57.1653 11.2H69.0372V9.2H57.1653V11.2ZM68.0372 10.2V10.936H70.0372V10.2H68.0372ZM68.0372 10.936C68.0372 13.5283 67.5675 15.6404 66.6812 17.3166L68.4493 18.2514C69.5257 16.2156 70.0372 13.7623 70.0372 10.936H68.0372ZM66.6792 17.3204C65.8061 18.989 64.6 20.2265 63.0559 21.0653L64.0106 22.8227C65.9225 21.7842 67.4044 20.2483 68.4513 18.2476L66.6792 17.3204ZM63.0513 21.0678C61.5132 21.9138 59.7103 22.352 57.6133 22.352V24.352C59.9962 24.352 62.14 23.8516 64.0152 22.8202L63.0513 21.0678ZM78.4427 22.488L78.0572 23.4107L78.062 23.4127L78.4427 22.488ZM74.6667 19.992L75.3668 19.2779L74.6667 19.992ZM72.1387 16.28L71.2161 16.6656L71.2182 16.6705L72.1387 16.28ZM72.1387 7.064L71.2182 6.67345L72.1387 7.064ZM74.6348 3.384L75.3347 4.09825L75.3419 4.09111L74.6348 3.384ZM78.3788 0.919998L78.7525 1.84754L78.7595 1.84468L78.3788 0.919998ZM87.7868 0.919998L87.4012 1.84267L87.4094 1.84612L87.4177 1.84941L87.7868 0.919998ZM91.5628 3.384L90.8556 4.09111L90.8627 4.09818L90.8699 4.1051L91.5628 3.384ZM94.0908 7.096L93.1681 7.4816L93.1702 7.48655L94.0908 7.096ZM94.0908 16.312L95.0113 16.7026L95.0134 16.6976L94.0908 16.312ZM91.5947 20.024L92.2947 20.7382L92.3019 20.7311L91.5947 20.024ZM87.8187 22.488L87.438 21.5633L87.4332 21.5653L87.8187 22.488ZM86.6348 17.912L86.1309 17.0482L86.1229 17.0529L86.6348 17.912ZM89.0027 15.416L89.89 15.8774L89.8937 15.8702L89.0027 15.416ZM89.3548 8.792L88.4156 9.13559L88.4184 9.14312L89.3548 8.792ZM87.9788 6.552L87.2477 7.23432L87.2535 7.24051L87.2593 7.2466L87.9788 6.552ZM85.8347 5.112L85.4467 6.03364L85.4611 6.03972L85.4758 6.04535L85.8347 5.112ZM79.5628 5.496L80.0609 6.36312L80.0666 6.35978L79.5628 5.496ZM77.2268 7.96L78.1101 8.42873L78.114 8.42135L77.2268 7.96ZM76.8747 14.584L75.9356 14.9276L76.8747 14.584ZM78.2188 16.856L77.4755 17.525L77.4872 17.538L77.4994 17.5506L78.2188 16.856ZM80.3627 18.296L79.9832 19.2212L80.3627 18.296ZM83.1787 22.384C81.5911 22.384 80.1431 22.1067 78.8235 21.5633L78.062 23.4127C79.6437 24.064 81.353 24.384 83.1787 24.384V22.384ZM78.8283 21.5653C77.5141 21.0161 76.3626 20.2542 75.3668 19.2779L73.9667 20.7061C75.1469 21.8631 76.5127 22.7652 78.0572 23.4107L78.8283 21.5653ZM75.3668 19.2779C74.3733 18.3039 73.6054 17.1766 73.0593 15.8895L71.2182 16.6705C71.8668 18.1994 72.7842 19.5468 73.9667 20.7061L75.3668 19.2779ZM73.0614 15.8944C72.5182 14.5945 72.2428 13.1904 72.2428 11.672H70.2428C70.2428 13.4389 70.5647 15.1068 71.2161 16.6656L73.0614 15.8944ZM72.2428 11.672C72.2428 10.1303 72.5189 8.72851 73.0593 7.45455L71.2182 6.67345C70.564 8.21549 70.2428 9.88571 70.2428 11.672H72.2428ZM73.0593 7.45455C73.6064 6.16494 74.3645 5.04901 75.3347 4.09821L73.9348 2.66979C72.7717 3.80966 71.8657 5.14706 71.2182 6.67345L73.0593 7.45455ZM75.3419 4.09111C76.3113 3.12167 77.4452 2.37433 78.7525 1.84752L78.005 -0.00752068C76.4536 0.617662 75.0915 1.51299 73.9276 2.67689L75.3419 4.09111ZM78.7595 1.84468C80.0791 1.30129 81.5272 1.024 83.1148 1.024V-0.976002C81.289 -0.976002 79.5797 -0.655963 77.998 -0.00467968L78.7595 1.84468ZM83.1148 1.024C84.6794 1.024 86.1043 1.30071 87.4012 1.84267L88.1723 -0.00267124C86.6105 -0.655385 84.9207 -0.976002 83.1148 -0.976002V1.024ZM87.4177 1.84941C88.7462 2.37691 89.8887 3.12417 90.8556 4.09111L92.2699 2.67689C91.1035 1.5105 89.7286 0.615089 88.1558 -0.00941849L87.4177 1.84941ZM90.8699 4.1051C91.8565 5.05296 92.6221 6.17519 93.1681 7.48159L95.0134 6.71041C94.3647 5.15814 93.445 3.80571 92.2556 2.66289L90.8699 4.1051ZM93.1702 7.48655C93.7106 8.76051 93.9868 10.1623 93.9868 11.704H95.9868C95.9868 9.91771 95.6655 8.24749 95.0113 6.70545L93.1702 7.48655ZM93.9868 11.704C93.9868 13.2224 93.7113 14.6265 93.1681 15.9264L95.0134 16.6976C95.6648 15.1388 95.9868 13.4709 95.9868 11.704H93.9868ZM93.1702 15.9214C92.6223 17.2129 91.8622 18.3423 90.8876 19.3169L92.3019 20.7311C93.4606 19.5723 94.3645 18.2271 95.0113 16.7025L93.1702 15.9214ZM90.8948 19.3098C89.9246 20.2606 88.7758 21.0125 87.438 21.5633L88.1995 23.4127C89.763 22.7689 91.1316 21.8781 92.2947 20.7382L90.8948 19.3098ZM87.4332 21.5653C86.1348 22.1079 84.7203 22.384 83.1787 22.384V24.384C84.9652 24.384 86.644 24.0627 88.2043 23.4107L87.4332 21.5653ZM83.1148 19.808C84.6112 19.808 85.9669 19.4739 87.1466 18.7711L86.1229 17.0529C85.2973 17.5448 84.3063 17.808 83.1148 17.808V19.808ZM87.1386 18.7758C88.3283 18.0818 89.2494 17.1092 89.89 15.8774L88.1155 14.9546C87.6468 15.8562 86.9892 16.5475 86.1309 17.0482L87.1386 18.7758ZM89.8937 15.8702C90.5303 14.6214 90.8347 13.2137 90.8347 11.672H88.8347C88.8347 12.9463 88.5846 14.0346 88.1118 14.9618L89.8937 15.8702ZM90.8347 11.672C90.8347 10.5055 90.6597 9.42384 90.2911 8.44088L88.4184 9.14312C88.6898 9.86683 88.8347 10.7052 88.8347 11.672H90.8347ZM90.2939 8.44842C89.93 7.45371 89.4002 6.58457 88.6982 5.85741L87.2593 7.2466C87.7519 7.75677 88.1395 8.38096 88.4156 9.13558L90.2939 8.44842ZM88.7098 5.86968C88.0071 5.11682 87.1645 4.55203 86.1937 4.17865L85.4758 6.04535C86.169 6.31197 86.7557 6.70718 87.2477 7.23432L88.7098 5.86968ZM86.2228 4.19036C85.2733 3.79057 84.2322 3.6 83.1148 3.6V5.6C84.0027 5.6 84.7749 5.75076 85.4467 6.03364L86.2228 4.19036ZM83.1148 3.6C81.6178 3.6 80.2554 3.93425 79.0589 4.63222L80.0666 6.35978C80.9181 5.86308 81.9237 5.6 83.1148 5.6V3.6ZM79.0646 4.62889C77.8893 5.30406 76.9787 6.2694 76.3395 7.49865L78.114 8.42135C78.5841 7.51726 79.2308 6.83993 80.0609 6.3631L79.0646 4.62889ZM76.3434 7.49128C75.6978 8.70807 75.3948 10.1129 75.3948 11.672H77.3948C77.3948 10.3724 77.6464 9.3026 78.1101 8.42871L76.3434 7.49128ZM75.3948 11.672C75.3948 12.8391 75.57 13.9281 75.9356 14.9276L77.8139 14.2404C77.5395 13.4906 77.3948 12.6383 77.3948 11.672H75.3948ZM75.9356 14.9276C76.2959 15.9124 76.8072 16.7825 77.4755 17.525L78.962 16.187C78.4783 15.6495 78.0936 15.005 77.8139 14.2404L75.9356 14.9276ZM77.4994 17.5506C78.1972 18.2733 79.0292 18.8298 79.9832 19.2212L80.7423 17.3708C80.0323 17.0796 79.435 16.676 78.9381 16.1614L77.4994 17.5506ZM79.9832 19.2212C80.9487 19.6173 81.9969 19.808 83.1148 19.808V17.808C82.2273 17.808 81.4408 17.6574 80.7423 17.3708L79.9832 19.2212Z" fill="black" mask="url(#path-1-outside-1_1_6)"/>
<path d="M4.176 23H3.176V24H4.176V23ZM4.176 0.407999V-0.592001H3.176V0.407999H4.176ZM9.2 0.407999H10.2V-0.592001H9.2V0.407999ZM9.2 23V24H10.2V23H9.2ZM8.048 23H7.048V24H8.048V23ZM8.048 18.584V17.584H7.048V18.584H8.048ZM19.216 18.584H20.216V17.584H19.216V18.584ZM19.216 23V24H20.216V23H19.216ZM5.176 23V0.407999H3.176V23H5.176ZM4.176 1.408H9.2V-0.592001H4.176V1.408ZM8.2 0.407999V23H10.2V0.407999H8.2ZM9.2 22H4.176V24H9.2V22ZM9.048 23V18.584H7.048V23H9.048ZM8.048 19.584H19.216V17.584H8.048V19.584ZM18.216 18.584V23H20.216V18.584H18.216ZM19.216 22H8.048V24H19.216V22ZM26.9115 22.488L26.5259 23.4107L26.5308 23.4127L26.9115 22.488ZM23.1355 19.992L23.8356 19.2779L23.1355 19.992ZM20.6075 16.28L19.6848 16.6656L19.6869 16.6705L20.6075 16.28ZM20.6075 7.064L19.6869 6.67345L20.6075 7.064ZM23.1035 3.384L23.8035 4.09825L23.8106 4.09111L23.1035 3.384ZM26.8475 0.919998L27.2213 1.84754L27.2283 1.84468L26.8475 0.919998ZM36.2555 0.919998L35.8699 1.84267L35.8782 1.84612L35.8865 1.84941L36.2555 0.919998ZM40.0315 3.384L39.3244 4.09111L39.3315 4.09818L39.3387 4.1051L40.0315 3.384ZM42.5595 7.096L41.6368 7.4816L41.6389 7.48655L42.5595 7.096ZM42.5595 16.312L43.4801 16.7026L43.4822 16.6976L42.5595 16.312ZM40.0635 20.024L40.7635 20.7382L40.7706 20.7311L40.0635 20.024ZM36.2875 22.488L35.9067 21.5633L35.9019 21.5653L36.2875 22.488ZM35.1035 17.912L34.5996 17.0482L34.5917 17.0529L35.1035 17.912ZM37.4715 15.416L38.3587 15.8774L38.3624 15.8702L37.4715 15.416ZM37.8235 8.792L36.8843 9.13559L36.8872 9.14312L37.8235 8.792ZM36.4475 6.552L35.7164 7.23432L35.7222 7.24051L35.7281 7.2466L36.4475 6.552ZM34.3035 5.112L33.9154 6.03364L33.9299 6.03972L33.9445 6.04535L34.3035 5.112ZM28.0315 5.496L28.5296 6.36312L28.5354 6.35978L28.0315 5.496ZM25.6955 7.96L26.5789 8.42873L26.5827 8.42135L25.6955 7.96ZM25.3435 14.584L24.4044 14.9276L25.3435 14.584ZM26.6875 16.856L25.9442 17.525L25.9559 17.538L25.9681 17.5506L26.6875 16.856ZM28.8315 18.296L28.4519 19.2212L28.8315 18.296ZM31.6475 22.384C30.0599 22.384 28.6119 22.1067 27.2922 21.5633L26.5308 23.4127C28.1124 24.064 29.8218 24.384 31.6475 24.384V22.384ZM27.2971 21.5653C25.9829 21.0161 24.8314 20.2542 23.8356 19.2779L22.4354 20.7061C23.6156 21.8631 24.9815 22.7652 26.5259 23.4107L27.2971 21.5653ZM23.8356 19.2779C22.842 18.3039 22.0742 17.1766 21.5281 15.8895L19.6869 16.6705C20.3355 18.1994 21.253 19.5468 22.4354 20.7061L23.8356 19.2779ZM21.5302 15.8944C20.9869 14.5945 20.7115 13.1904 20.7115 11.672H18.7115C18.7115 13.4389 19.0334 15.1068 19.6848 16.6656L21.5302 15.8944ZM20.7115 11.672C20.7115 10.1303 20.9876 8.72851 21.5281 7.45455L19.6869 6.67345C19.0327 8.21549 18.7115 9.88571 18.7115 11.672H20.7115ZM21.5281 7.45455C22.0752 6.16494 22.8332 5.04901 23.8034 4.09821L22.4036 2.66979C21.2404 3.80966 20.3345 5.14706 19.6869 6.67345L21.5281 7.45455ZM23.8106 4.09111C24.78 3.12167 25.914 2.37433 27.2213 1.84752L26.4737 -0.00752068C24.9223 0.617662 23.5603 1.51299 22.3964 2.67689L23.8106 4.09111ZM27.2283 1.84468C28.5479 1.30129 29.9959 1.024 31.5835 1.024V-0.976002C29.7578 -0.976002 28.0484 -0.655963 26.4668 -0.00467968L27.2283 1.84468ZM31.5835 1.024C33.1482 1.024 34.5731 1.30071 35.8699 1.84267L36.6411 -0.00267124C35.0792 -0.655385 33.3895 -0.976002 31.5835 -0.976002V1.024ZM35.8865 1.84941C37.215 2.37691 38.3575 3.12417 39.3244 4.09111L40.7386 2.67689C39.5722 1.5105 38.1974 0.615089 36.6245 -0.00941849L35.8865 1.84941ZM39.3387 4.1051C40.3252 5.05296 41.0909 6.17519 41.6368 7.48159L43.4822 6.71041C42.8335 5.15814 41.9138 3.80571 40.7243 2.66289L39.3387 4.1051ZM41.6389 7.48655C42.1794 8.76051 42.4555 10.1623 42.4555 11.704H44.4555C44.4555 9.91771 44.1343 8.24749 43.4801 6.70545L41.6389 7.48655ZM42.4555 11.704C42.4555 13.2224 42.1801 14.6265 41.6368 15.9264L43.4822 16.6976C44.1336 15.1388 44.4555 13.4709 44.4555 11.704H42.4555ZM41.6389 15.9214C41.091 17.2129 40.3309 18.3423 39.3564 19.3169L40.7706 20.7311C41.9294 19.5723 42.8333 18.2271 43.4801 16.7025L41.6389 15.9214ZM39.3636 19.3098C38.3934 20.2606 37.2446 21.0125 35.9067 21.5633L36.6683 23.4127C38.2318 22.7689 39.6003 21.8781 40.7634 20.7382L39.3636 19.3098ZM35.9019 21.5653C34.6036 22.1079 33.189 22.384 31.6475 22.384V24.384C33.434 24.384 35.1128 24.0627 36.6731 23.4107L35.9019 21.5653ZM31.5835 19.808C33.0799 19.808 34.4356 19.4739 35.6153 18.7711L34.5917 17.0529C33.766 17.5448 32.7751 17.808 31.5835 17.808V19.808ZM35.6074 18.7758C36.797 18.0818 37.7182 17.1092 38.3587 15.8774L36.5843 14.9546C36.1155 15.8562 35.458 16.5475 34.5996 17.0482L35.6074 18.7758ZM38.3624 15.8702C38.999 14.6214 39.3035 13.2137 39.3035 11.672H37.3035C37.3035 12.9463 37.0533 14.0346 36.5806 14.9618L38.3624 15.8702ZM39.3035 11.672C39.3035 10.5055 39.1284 9.42384 38.7598 8.44088L36.8872 9.14312C37.1586 9.86683 37.3035 10.7052 37.3035 11.672H39.3035ZM38.7626 8.44842C38.3987 7.45371 37.869 6.58457 37.1669 5.85741L35.7281 7.2466C36.2207 7.75677 36.6083 8.38096 36.8844 9.13558L38.7626 8.44842ZM37.1786 5.86968C36.4759 5.11682 35.6333 4.55203 34.6625 4.17865L33.9445 6.04535C34.6377 6.31197 35.2244 6.70718 35.7164 7.23432L37.1786 5.86968ZM34.6916 4.19036C33.742 3.79057 32.7009 3.6 31.5835 3.6V5.6C32.4714 5.6 33.2436 5.75076 33.9154 6.03364L34.6916 4.19036ZM31.5835 3.6C30.0866 3.6 28.7241 3.93425 27.5276 4.63222L28.5354 6.35978C29.3869 5.86308 30.3924 5.6 31.5835 5.6V3.6ZM27.5334 4.62889C26.3581 5.30406 25.4475 6.2694 24.8083 7.49865L26.5827 8.42135C27.0528 7.51726 27.6996 6.83993 28.5296 6.3631L27.5334 4.62889ZM24.8122 7.49128C24.1665 8.70807 23.8635 10.1129 23.8635 11.672H25.8635C25.8635 10.3724 26.1152 9.3026 26.5788 8.42871L24.8122 7.49128ZM23.8635 11.672C23.8635 12.8391 24.0387 13.9281 24.4044 14.9276L26.2826 14.2404C26.0083 13.4906 25.8635 12.6383 25.8635 11.672H23.8635ZM24.4044 14.9276C24.7647 15.9124 25.276 16.7825 25.9442 17.525L27.4308 16.187C26.947 15.6495 26.5623 15.005 26.2826 14.2404L24.4044 14.9276ZM25.9681 17.5506C26.6659 18.2733 27.4979 18.8298 28.4519 19.2212L29.2111 17.3708C28.5011 17.0796 27.9037 16.676 27.4069 16.1614L25.9681 17.5506ZM28.4519 19.2212C29.4175 19.6173 30.4656 19.808 31.5835 19.808V17.808C30.6961 17.808 29.9095 17.6574 29.2111 17.3708L28.4519 19.2212ZM52.9733 22.456L52.5877 23.3787L52.5925 23.3807L52.9733 22.456ZM49.2293 19.992L48.5221 20.6991L48.5293 20.7062L49.2293 19.992ZM46.7012 16.28L45.7786 16.6656L45.7821 16.674L45.7857 16.6823L46.7012 16.28ZM46.7332 7.096L47.6488 7.49827L46.7332 7.096ZM49.2933 3.416L49.9861 4.1371L49.9864 4.13683L49.2933 3.416ZM53.1653 0.952L53.5297 1.88332L53.5413 1.87861L53.1653 0.952ZM63.1813 1.112L62.774 2.02531L62.7785 2.02731L63.1813 1.112ZM67.1493 4.024L67.8564 4.7311L68.5065 4.08098L67.9131 3.37865L67.1493 4.024ZM63.7253 7.448L62.934 8.05945L63.6288 8.95865L64.4324 8.15511L63.7253 7.448ZM61.1653 5.336L61.5967 4.43386V4.43386L61.1653 5.336ZM54.2853 5.528L54.7679 6.40384L54.7747 6.40009L54.7814 6.39624L54.2853 5.528ZM51.8213 7.992L50.9487 7.50339L50.9454 7.5094L51.8213 7.992ZM51.8213 15.384L52.7012 14.9089L51.8213 15.384ZM54.1893 17.88L53.6774 18.7391L54.1893 17.88ZM61.0052 18.04L61.4769 18.9218L61.4841 18.9179L61.0052 18.04ZM63.1493 15.864L62.2669 15.3934L62.263 15.4007L63.1493 15.864ZM63.9173 12.376L64.4756 11.5464L62.9173 10.4975V12.376H63.9173ZM67.2453 14.616L67.2294 15.6159L70.6012 15.6694L67.8036 13.7864L67.2453 14.616ZM57.1653 14.456H56.1653V15.4403L57.1494 15.4559L57.1653 14.456ZM57.1653 10.2V9.2H56.1653V10.2H57.1653ZM69.0372 10.2H70.0372V9.2H69.0372V10.2ZM67.5652 17.784L66.6812 17.3166L66.6792 17.3204L67.5652 17.784ZM63.5332 21.944L63.0559 21.0653L63.0513 21.0678L63.5332 21.944ZM57.6133 22.352C56.0949 22.352 54.6782 22.0766 53.354 21.5313L52.5925 23.3807C54.1696 24.0301 55.8462 24.352 57.6133 24.352V22.352ZM53.3588 21.5333C52.0421 20.9831 50.9019 20.231 49.9292 19.2778L48.5293 20.7062C49.69 21.8436 51.0457 22.7343 52.5877 23.3787L53.3588 21.5333ZM49.9364 19.2849C48.9592 18.3078 48.1865 17.1743 47.6168 15.8777L45.7857 16.6823C46.4533 18.2017 47.366 19.5429 48.5221 20.6991L49.9364 19.2849ZM47.6239 15.8944C47.0807 14.5945 46.8052 13.1904 46.8052 11.672H44.8052C44.8052 13.4389 45.1272 15.1068 45.7786 16.6656L47.6239 15.8944ZM46.8052 11.672C46.8052 10.1583 47.0895 8.77099 47.6488 7.49827L45.8177 6.69373C45.1396 8.237 44.8052 9.90042 44.8052 11.672H46.8052ZM47.6488 7.49827C48.2158 6.20773 48.9943 5.08998 49.9861 4.1371L48.6004 2.69489C47.4162 3.83268 46.488 5.16827 45.8177 6.69373L47.6488 7.49827ZM49.9864 4.13683C50.9984 3.1637 52.1766 2.4127 53.5296 1.88324L52.8009 0.0207567C51.2099 0.643295 49.8068 1.53496 48.6001 2.69517L49.9864 4.13683ZM53.5413 1.87861C54.8867 1.33265 56.3369 1.056 57.9013 1.056V-0.944C56.095 -0.944 54.3878 -0.623317 52.7892 0.0253868L53.5413 1.87861ZM57.9013 1.056C59.7196 1.056 61.3384 1.38511 62.774 2.0253L63.5885 0.198698C61.8668 -0.569115 59.9656 -0.944 57.9013 -0.944V1.056ZM62.7785 2.02731C64.2504 2.67494 65.4459 3.55736 66.3854 4.66935L67.9131 3.37865C66.7619 2.01597 65.3121 0.957056 63.584 0.196685L62.7785 2.02731ZM66.4421 3.31689L63.0181 6.74089L64.4324 8.15511L67.8564 4.7311L66.4421 3.31689ZM64.5165 6.83655C63.7044 5.7856 62.7315 4.97659 61.5967 4.43386L60.7338 6.23813C61.5617 6.63407 62.2954 7.23306 62.934 8.05945L64.5165 6.83655ZM61.5967 4.43386C60.4633 3.89178 59.2033 3.632 57.8372 3.632V5.632C58.9458 5.632 59.9046 5.84155 60.7338 6.23813L61.5967 4.43386ZM57.8372 3.632C56.3582 3.632 55.0001 3.96774 53.7891 4.65976L54.7814 6.39624C55.661 5.89359 56.671 5.632 57.8372 5.632V3.632ZM53.8026 4.65216C52.5896 5.32058 51.635 6.27795 50.9487 7.5034L52.6938 8.4806C53.2022 7.57272 53.8902 6.88742 54.7679 6.40384L53.8026 4.65216ZM50.9454 7.5094C50.2745 8.72706 49.9572 10.1256 49.9572 11.672H51.9572C51.9572 10.4024 52.216 9.34761 52.6971 8.4746L50.9454 7.5094ZM49.9572 11.672C49.9572 13.219 50.2746 14.6245 50.9413 15.8591L52.7012 14.9089C52.2159 14.0101 51.9572 12.941 51.9572 11.672H49.9572ZM50.9413 15.8591C51.5997 17.0783 52.5135 18.0457 53.6774 18.7391L54.7011 17.0209C53.8597 16.5196 53.1948 15.8231 52.7012 14.9089L50.9413 15.8591ZM53.6774 18.7391C54.8522 19.439 56.185 19.776 57.6452 19.776V17.776C56.5028 17.776 55.5316 17.5157 54.7011 17.0209L53.6774 18.7391ZM57.6452 19.776C59.0889 19.776 60.3804 19.5083 61.4769 18.9218L60.5336 17.1582C59.7955 17.553 58.847 17.776 57.6452 17.776V19.776ZM61.4841 18.9179C62.5949 18.312 63.4521 17.4432 64.0355 16.3273L62.263 15.4007C61.865 16.1621 61.293 16.744 60.5264 17.1621L61.4841 18.9179ZM64.0316 16.3346C64.6381 15.1974 64.9173 13.8645 64.9173 12.376H62.9173C62.9173 13.6182 62.6844 14.6106 62.2669 15.3934L64.0316 16.3346ZM63.3589 13.2056L66.6869 15.4456L67.8036 13.7864L64.4756 11.5464L63.3589 13.2056ZM67.2611 13.6161L57.1811 13.4561L57.1494 15.4559L67.2294 15.6159L67.2611 13.6161ZM58.1653 14.456V10.2H56.1653V14.456H58.1653ZM57.1653 11.2H69.0372V9.2H57.1653V11.2ZM68.0372 10.2V10.936H70.0372V10.2H68.0372ZM68.0372 10.936C68.0372 13.5283 67.5675 15.6404 66.6812 17.3166L68.4493 18.2514C69.5257 16.2156 70.0372 13.7623 70.0372 10.936H68.0372ZM66.6792 17.3204C65.8061 18.989 64.6 20.2265 63.0559 21.0653L64.0106 22.8227C65.9225 21.7842 67.4044 20.2483 68.4513 18.2476L66.6792 17.3204ZM63.0513 21.0678C61.5132 21.9138 59.7103 22.352 57.6133 22.352V24.352C59.9962 24.352 62.14 23.8516 64.0152 22.8202L63.0513 21.0678ZM78.4427 22.488L78.0572 23.4107L78.062 23.4127L78.4427 22.488ZM74.6667 19.992L75.3668 19.2779L74.6667 19.992ZM72.1387 16.28L71.2161 16.6656L71.2182 16.6705L72.1387 16.28ZM72.1387 7.064L71.2182 6.67345L72.1387 7.064ZM74.6348 3.384L75.3347 4.09825L75.3419 4.09111L74.6348 3.384ZM78.3788 0.919998L78.7525 1.84754L78.7595 1.84468L78.3788 0.919998ZM87.7868 0.919998L87.4012 1.84267L87.4094 1.84612L87.4177 1.84941L87.7868 0.919998ZM91.5628 3.384L90.8556 4.09111L90.8627 4.09818L90.8699 4.1051L91.5628 3.384ZM94.0908 7.096L93.1681 7.4816L93.1702 7.48655L94.0908 7.096ZM94.0908 16.312L95.0113 16.7026L95.0134 16.6976L94.0908 16.312ZM91.5947 20.024L92.2947 20.7382L92.3019 20.7311L91.5947 20.024ZM87.8187 22.488L87.438 21.5633L87.4332 21.5653L87.8187 22.488ZM86.6348 17.912L86.1309 17.0482L86.1229 17.0529L86.6348 17.912ZM89.0027 15.416L89.89 15.8774L89.8937 15.8702L89.0027 15.416ZM89.3548 8.792L88.4156 9.13559L88.4184 9.14312L89.3548 8.792ZM87.9788 6.552L87.2477 7.23432L87.2535 7.24051L87.2593 7.2466L87.9788 6.552ZM85.8347 5.112L85.4467 6.03364L85.4611 6.03972L85.4758 6.04535L85.8347 5.112ZM79.5628 5.496L80.0609 6.36312L80.0666 6.35978L79.5628 5.496ZM77.2268 7.96L78.1101 8.42873L78.114 8.42135L77.2268 7.96ZM76.8747 14.584L75.9356 14.9276L76.8747 14.584ZM78.2188 16.856L77.4755 17.525L77.4872 17.538L77.4994 17.5506L78.2188 16.856ZM80.3627 18.296L79.9832 19.2212L80.3627 18.296ZM83.1787 22.384C81.5911 22.384 80.1431 22.1067 78.8235 21.5633L78.062 23.4127C79.6437 24.064 81.353 24.384 83.1787 24.384V22.384ZM78.8283 21.5653C77.5141 21.0161 76.3626 20.2542 75.3668 19.2779L73.9667 20.7061C75.1469 21.8631 76.5127 22.7652 78.0572 23.4107L78.8283 21.5653ZM75.3668 19.2779C74.3733 18.3039 73.6054 17.1766 73.0593 15.8895L71.2182 16.6705C71.8668 18.1994 72.7842 19.5468 73.9667 20.7061L75.3668 19.2779ZM73.0614 15.8944C72.5182 14.5945 72.2428 13.1904 72.2428 11.672H70.2428C70.2428 13.4389 70.5647 15.1068 71.2161 16.6656L73.0614 15.8944ZM72.2428 11.672C72.2428 10.1303 72.5189 8.72851 73.0593 7.45455L71.2182 6.67345C70.564 8.21549 70.2428 9.88571 70.2428 11.672H72.2428ZM73.0593 7.45455C73.6064 6.16494 74.3645 5.04901 75.3347 4.09821L73.9348 2.66979C72.7717 3.80966 71.8657 5.14706 71.2182 6.67345L73.0593 7.45455ZM75.3419 4.09111C76.3113 3.12167 77.4452 2.37433 78.7525 1.84752L78.005 -0.00752068C76.4536 0.617662 75.0915 1.51299 73.9276 2.67689L75.3419 4.09111ZM78.7595 1.84468C80.0791 1.30129 81.5272 1.024 83.1148 1.024V-0.976002C81.289 -0.976002 79.5797 -0.655963 77.998 -0.00467968L78.7595 1.84468ZM83.1148 1.024C84.6794 1.024 86.1043 1.30071 87.4012 1.84267L88.1723 -0.00267124C86.6105 -0.655385 84.9207 -0.976002 83.1148 -0.976002V1.024ZM87.4177 1.84941C88.7462 2.37691 89.8887 3.12417 90.8556 4.09111L92.2699 2.67689C91.1035 1.5105 89.7286 0.615089 88.1558 -0.00941849L87.4177 1.84941ZM90.8699 4.1051C91.8565 5.05296 92.6221 6.17519 93.1681 7.48159L95.0134 6.71041C94.3647 5.15814 93.445 3.80571 92.2556 2.66289L90.8699 4.1051ZM93.1702 7.48655C93.7106 8.76051 93.9868 10.1623 93.9868 11.704H95.9868C95.9868 9.91771 95.6655 8.24749 95.0113 6.70545L93.1702 7.48655ZM93.9868 11.704C93.9868 13.2224 93.7113 14.6265 93.1681 15.9264L95.0134 16.6976C95.6648 15.1388 95.9868 13.4709 95.9868 11.704H93.9868ZM93.1702 15.9214C92.6223 17.2129 91.8622 18.3423 90.8876 19.3169L92.3019 20.7311C93.4606 19.5723 94.3645 18.2271 95.0113 16.7025L93.1702 15.9214ZM90.8948 19.3098C89.9246 20.2606 88.7758 21.0125 87.438 21.5633L88.1995 23.4127C89.763 22.7689 91.1316 21.8781 92.2947 20.7382L90.8948 19.3098ZM87.4332 21.5653C86.1348 22.1079 84.7203 22.384 83.1787 22.384V24.384C84.9652 24.384 86.644 24.0627 88.2043 23.4107L87.4332 21.5653ZM83.1148 19.808C84.6112 19.808 85.9669 19.4739 87.1466 18.7711L86.1229 17.0529C85.2973 17.5448 84.3063 17.808 83.1148 17.808V19.808ZM87.1386 18.7758C88.3283 18.0818 89.2494 17.1092 89.89 15.8774L88.1155 14.9546C87.6468 15.8562 86.9892 16.5475 86.1309 17.0482L87.1386 18.7758ZM89.8937 15.8702C90.5303 14.6214 90.8347 13.2137 90.8347 11.672H88.8347C88.8347 12.9463 88.5846 14.0346 88.1118 14.9618L89.8937 15.8702ZM90.8347 11.672C90.8347 10.5055 90.6597 9.42384 90.2911 8.44088L88.4184 9.14312C88.6898 9.86683 88.8347 10.7052 88.8347 11.672H90.8347ZM90.2939 8.44842C89.93 7.45371 89.4002 6.58457 88.6982 5.85741L87.2593 7.2466C87.7519 7.75677 88.1395 8.38096 88.4156 9.13558L90.2939 8.44842ZM88.7098 5.86968C88.0071 5.11682 87.1645 4.55203 86.1937 4.17865L85.4758 6.04535C86.169 6.31197 86.7557 6.70718 87.2477 7.23432L88.7098 5.86968ZM86.2228 4.19036C85.2733 3.79057 84.2322 3.6 83.1148 3.6V5.6C84.0027 5.6 84.7749 5.75076 85.4467 6.03364L86.2228 4.19036ZM83.1148 3.6C81.6178 3.6 80.2554 3.93425 79.0589 4.63222L80.0666 6.35978C80.9181 5.86308 81.9237 5.6 83.1148 5.6V3.6ZM79.0646 4.62889C77.8893 5.30406 76.9787 6.2694 76.3395 7.49865L78.114 8.42135C78.5841 7.51726 79.2308 6.83993 80.0609 6.3631L79.0646 4.62889ZM76.3434 7.49128C75.6978 8.70807 75.3948 10.1129 75.3948 11.672H77.3948C77.3948 10.3724 77.6464 9.3026 78.1101 8.42871L76.3434 7.49128ZM75.3948 11.672C75.3948 12.8391 75.57 13.9281 75.9356 14.9276L77.8139 14.2404C77.5395 13.4906 77.3948 12.6383 77.3948 11.672H75.3948ZM75.9356 14.9276C76.2959 15.9124 76.8072 16.7825 77.4755 17.525L78.962 16.187C78.4783 15.6495 78.0936 15.005 77.8139 14.2404L75.9356 14.9276ZM77.4994 17.5506C78.1972 18.2733 79.0292 18.8298 79.9832 19.2212L80.7423 17.3708C80.0323 17.0796 79.435 16.676 78.9381 16.1614L77.4994 17.5506ZM79.9832 19.2212C80.9487 19.6173 81.9969 19.808 83.1148 19.808V17.808C82.2273 17.808 81.4408 17.6574 80.7423 17.3708L79.9832 19.2212Z" fill="black" fill-opacity="0.2" mask="url(#path-1-outside-1_1_6)"/>
</g>
<defs>
<filter id="filter0_d_1_6" x="0.175995" y="0.0239868" width="98.8108" height="31.36" filterUnits="userSpaceOnUse" color-interpolation-filters="sRGB">
<feFlood flood-opacity="0" result="BackgroundImageFix"/>
<feColorMatrix in="SourceAlpha" type="matrix" values="0 0 0 0 0 0 0 0 0 0 0 0 0 0 0 0 0 0 127 0" result="hardAlpha"/>
<feOffset dy="4"/>
<feGaussianBlur stdDeviation="2"/>
<feComposite in2="hardAlpha" operator="out"/>
<feColorMatrix type="matrix" values="0 0 0 0 0 0 0 0 0 0 0 0 0 0 0 0 0 0 0.25 0"/>
<feBlend mode="normal" in2="BackgroundImageFix" result="effect1_dropShadow_1_6"/>
<feBlend mode="normal" in="SourceGraphic" in2="effect1_dropShadow_1_6" result="shape"/>
</filter>
</defs>
</svg>
