<svg width="63" height="63" viewBox="0 0 63 63" fill="none" xmlns="http://www.w3.org/2000/svg">
<path d="M20.2904 3.02695C19.343 0.738279 16.8451 -0.479886 14.458 0.172263L3.62988 3.12539C1.48887 3.71601 0 5.66015 0 7.875C0 38.3168 24.6832 63 55.125 63C57.3398 63 59.284 61.5111 59.8746 59.3701L62.8277 48.542C63.4799 46.1549 62.2617 43.657 59.973 42.7096L48.1605 37.7877C46.1549 36.951 43.8293 37.5293 42.4635 39.215L37.4924 45.2812C28.8299 41.1838 21.8162 34.1701 17.7188 25.5076L23.785 20.5488C25.4707 19.1707 26.049 16.8574 25.2123 14.8518L20.2904 3.03926V3.02695Z" fill="white"/>
</svg>
