<svg width="34" height="27" viewBox="0 0 34 27" fill="none" xmlns="http://www.w3.org/2000/svg">
<path fill-rule="evenodd" clip-rule="evenodd" d="M33.5714 3.47431C32.3516 3.98896 31.0412 4.33529 29.6658 4.4915C31.0705 3.69228 32.1476 2.42684 32.655 0.918007C31.342 1.65789 29.8864 2.19555 28.3364 2.48618C27.0961 1.23043 25.3294 0.44574 23.374 0.44574C19.6188 0.44574 16.5749 3.33868 16.5749 6.90491C16.5749 7.41108 16.6361 7.90515 16.7508 8.3762C11.1002 8.10737 6.0907 5.53533 2.73575 1.62641C2.15195 2.58063 1.81671 3.68985 1.81671 4.87537C1.81671 7.11561 3.01618 9.09308 4.84024 10.2507C3.72618 10.2168 2.67712 9.92621 1.76063 9.44304C1.76063 9.47089 1.76063 9.49632 1.76063 9.52418C1.76063 12.6545 4.10348 15.2653 7.21497 15.8574C6.64518 16.0051 6.04354 16.0839 5.42277 16.0839C4.98556 16.0839 4.55854 16.0427 4.14427 15.9688C5.00978 18.5348 7.52089 20.4033 10.496 20.4554C8.1697 22.1882 5.23794 23.2211 2.05125 23.2211C1.50314 23.2211 0.961404 23.1909 0.428589 23.1303C3.4381 24.9625 7.01102 26.0317 10.8516 26.0317C23.3587 26.0317 30.1961 16.1892 30.1961 7.65327C30.1961 7.37354 30.1897 7.09503 30.177 6.81772C31.5065 5.90588 32.6601 4.7688 33.5714 3.47431Z" fill="white" fill-opacity="0.5"/>
</svg>
